<svg width="37" height="54" viewBox="0 0 37 54" fill="none" xmlns="http://www.w3.org/2000/svg">
<path fill-rule="evenodd" clip-rule="evenodd" d="M6.12911 2.33907L4.80018 0L3.50897 2.3601L1.21453 6.55391L0 8.77386H2.53046H3.4131C3.9668 13.4503 7.07701 17.3433 11.3073 19.0163C10.6506 18.341 10.0153 17.5254 9.4394 16.6375C8.23776 14.7849 7.252 12.5507 6.88641 10.5207C6.6857 9.96059 6.53545 9.3765 6.44112 8.77386H7.20758H9.78498L8.51179 6.53288L6.12911 2.33907ZM9.14371 14.0785C9.48005 14.773 9.86327 15.4533 10.2784 16.0933C11.0104 17.2217 11.8244 18.1975 12.6226 18.8849C13.0825 19.2809 13.5154 19.5626 13.9077 19.7326C14.5717 19.8405 15.2531 19.8966 15.9476 19.8966H32.2413C32.3845 19.8966 32.5258 19.9147 32.662 19.9498C33.8945 20.0772 34.8801 20.7478 35.5645 21.6189C36.0058 22.1806 36.3305 22.8349 36.5242 23.5038C37.2856 21.8016 36.9815 19.7399 35.6119 18.325C34.7282 17.412 33.5119 16.8966 32.2413 16.8966H15.9476C13.2906 16.8966 10.885 15.8197 9.14371 14.0785ZM33.4563 22.7636C33.8105 22.3976 33.967 21.9116 33.9258 21.4396C34.248 21.6533 34.5332 21.925 34.7782 22.2368C35.3509 22.9656 35.6816 23.8897 35.7282 24.7255C35.6903 24.7676 35.6515 24.8091 35.6119 24.8501C34.7282 25.763 33.5119 26.2785 32.2413 26.2785H30.5992C27.5253 26.2785 25.0334 28.7704 25.0334 31.8443V47.3174C25.0334 49.0682 24.2816 50.7347 22.9692 51.8933L22.8126 52.0315C20.4546 54.1133 16.8764 53.9729 14.6887 51.7128C13.6262 50.6151 13.0321 49.1472 13.0321 47.6195V46.8209C13.3843 47.3142 13.7927 47.7902 14.2374 48.2255C14.9599 48.9328 15.7916 49.5462 16.6535 49.9517C17.1987 50.2082 17.7693 50.3875 18.339 50.4465C19.1976 50.6216 20.1232 50.404 20.8271 49.7826L20.9837 49.6444C21.6511 49.0552 22.0334 48.2077 22.0334 47.3174V31.8443C22.0334 27.1135 25.8684 23.2785 30.5992 23.2785H32.2413C32.6993 23.2785 33.1377 23.0927 33.4563 22.7636ZM13.0321 44.7969C13.1127 44.9941 13.2092 45.1971 13.3212 45.4039C13.714 46.1292 14.2778 46.8656 14.937 47.5109C15.3283 47.894 15.7484 48.2404 16.18 48.5315C16.0829 48.24 16.0321 47.9323 16.0321 47.6195V24.7785H13.0321V44.7969Z" fill="#398596"/>
<path fill-rule="evenodd" clip-rule="evenodd" d="M6.12911 2.33907L4.80018 0L3.50897 2.3601L1.21453 6.55391L0 8.77386H2.53046H3.4131C3.9668 13.4503 7.07701 17.3433 11.3073 19.0163C10.6506 18.341 10.0153 17.5254 9.4394 16.6375C8.23776 14.7849 7.252 12.5507 6.88641 10.5207C6.6857 9.96059 6.53545 9.3765 6.44112 8.77386H7.20758H9.78498L8.51179 6.53288L6.12911 2.33907ZM9.14371 14.0785C9.48005 14.773 9.86327 15.4533 10.2784 16.0933C11.0104 17.2217 11.8244 18.1975 12.6226 18.8849C13.0825 19.2809 13.5154 19.5626 13.9077 19.7326C14.5717 19.8405 15.2531 19.8966 15.9476 19.8966H32.2413C32.3845 19.8966 32.5258 19.9147 32.662 19.9498C33.8945 20.0772 34.8801 20.7478 35.5645 21.6189C36.0058 22.1806 36.3305 22.8349 36.5242 23.5038C37.2856 21.8016 36.9815 19.7399 35.6119 18.325C34.7282 17.412 33.5119 16.8966 32.2413 16.8966H15.9476C13.2906 16.8966 10.885 15.8197 9.14371 14.0785ZM33.4563 22.7636C33.8105 22.3976 33.967 21.9116 33.9258 21.4396C34.248 21.6533 34.5332 21.925 34.7782 22.2368C35.3509 22.9656 35.6816 23.8897 35.7282 24.7255C35.6903 24.7676 35.6515 24.8091 35.6119 24.8501C34.7282 25.763 33.5119 26.2785 32.2413 26.2785H30.5992C27.5253 26.2785 25.0334 28.7704 25.0334 31.8443V47.3174C25.0334 49.0682 24.2816 50.7347 22.9692 51.8933L22.8126 52.0315C20.4546 54.1133 16.8764 53.9729 14.6887 51.7128C13.6262 50.6151 13.0321 49.1472 13.0321 47.6195V46.8209C13.3843 47.3142 13.7927 47.7902 14.2374 48.2255C14.9599 48.9328 15.7916 49.5462 16.6535 49.9517C17.1987 50.2082 17.7693 50.3875 18.339 50.4465C19.1976 50.6216 20.1232 50.404 20.8271 49.7826L20.9837 49.6444C21.6511 49.0552 22.0334 48.2077 22.0334 47.3174V31.8443C22.0334 27.1135 25.8684 23.2785 30.5992 23.2785H32.2413C32.6993 23.2785 33.1377 23.0927 33.4563 22.7636ZM13.0321 44.7969C13.1127 44.9941 13.2092 45.1971 13.3212 45.4039C13.714 46.1292 14.2778 46.8656 14.937 47.5109C15.3283 47.894 15.7484 48.2404 16.18 48.5315C16.0829 48.24 16.0321 47.9323 16.0321 47.6195V24.7785H13.0321V44.7969Z" fill="url(#paint0_linear)" fill-opacity="0.5"/>
<defs>
<linearGradient id="paint0_linear" x1="2.27936" y1="3.4416" x2="16.8957" y2="56.2095" gradientUnits="userSpaceOnUse">
<stop stop-color="#3DE04D"/>
<stop offset="1" stop-opacity="0"/>
</linearGradient>
</defs>
</svg>
