<svg width="37" height="55" viewBox="0 0 37 55" fill="none" xmlns="http://www.w3.org/2000/svg">
<path d="M14.5322 25.6984V48.5395C14.5322 49.6778 14.9748 50.7716 15.7665 51.5895V51.5895C17.3967 53.2736 20.0629 53.3782 21.8199 51.827L21.9765 51.6888C22.9664 50.8149 23.5334 49.5579 23.5334 48.2374V32.7642C23.5334 28.8619 26.6969 25.6984 30.5992 25.6984H32.2414C33.1057 25.6984 33.933 25.3478 34.5341 24.7268V24.7268C35.7317 23.4896 35.7317 21.5254 34.5341 20.2882V20.2882C33.933 19.6671 33.1057 19.3165 32.2414 19.3165H15.9477C9.80477 19.3165 4.82495 14.3367 4.82495 8.19381V8.19381M4.82495 8.19381H7.20764L4.82495 4L2.53052 8.19381H4.82495Z" stroke="#398596" stroke-width="3"/>
<path d="M14.5322 25.6984V48.5395C14.5322 49.6778 14.9748 50.7716 15.7665 51.5895V51.5895C17.3967 53.2736 20.0629 53.3782 21.8199 51.827L21.9765 51.6888C22.9664 50.8149 23.5334 49.5579 23.5334 48.2374V32.7642C23.5334 28.8619 26.6969 25.6984 30.5992 25.6984H32.2414C33.1057 25.6984 33.933 25.3478 34.5341 24.7268V24.7268C35.7317 23.4896 35.7317 21.5254 34.5341 20.2882V20.2882C33.933 19.6671 33.1057 19.3165 32.2414 19.3165H15.9477C9.80477 19.3165 4.82495 14.3367 4.82495 8.19381V8.19381M4.82495 8.19381H7.20764L4.82495 4L2.53052 8.19381H4.82495Z" stroke="url(#paint0_linear)" stroke-opacity="0.5" stroke-width="3"/>
<defs>
<linearGradient id="paint0_linear" x1="7.64887" y1="11.1112" x2="20.3476" y2="54.3817" gradientUnits="userSpaceOnUse">
<stop stop-color="#3DE04D"/>
<stop offset="1" stop-opacity="0"/>
</linearGradient>
</defs>
</svg>
